<?xml version="1.0" encoding="UTF-8" standalone="no"?>
<svg
   xmlns:dc="http://purl.org/dc/elements/1.1/"
   xmlns:cc="http://creativecommons.org/ns#"
   xmlns:rdf="http://www.w3.org/1999/02/22-rdf-syntax-ns#"
   xmlns:svg="http://www.w3.org/2000/svg"
   xmlns="http://www.w3.org/2000/svg"
   xmlns:sodipodi="http://sodipodi.sourceforge.net/DTD/sodipodi-0.dtd"
   xmlns:inkscape="http://www.inkscape.org/namespaces/inkscape"
   width="205.24071mm"
   height="205.24071mm"
   viewBox="0 0 205.24071 205.24071"
   version="1.1"
   id="svg8"
   inkscape:version="1.0.1 (3bc2e813f5, 2020-09-07)"
   sodipodi:docname="beer_logo.svg">
  <defs
     id="defs2" />
  <sodipodi:namedview
     id="base"
     pagecolor="#ffffff"
     bordercolor="#666666"
     borderopacity="1.0"
     inkscape:pageopacity="0.0"
     inkscape:pageshadow="2"
     inkscape:zoom="0.35"
     inkscape:cx="144.59679"
     inkscape:cy="450.07661"
     inkscape:document-units="mm"
     inkscape:current-layer="layer1"
     inkscape:document-rotation="0"
     showgrid="false"
     inkscape:snap-global="true"
     inkscape:snap-smooth-nodes="true"
     fit-margin-top="0"
     fit-margin-left="0"
     fit-margin-right="0"
     fit-margin-bottom="0"
     inkscape:snap-center="false" />
  <metadata
     id="metadata5">
    <rdf:RDF>
      <cc:Work
         rdf:about="">
        <dc:format>image/svg+xml</dc:format>
        <dc:type
           rdf:resource="http://purl.org/dc/dcmitype/StillImage" />
        <dc:title></dc:title>
      </cc:Work>
    </rdf:RDF>
  </metadata>
  <g
     inkscape:label="Layer 1"
     inkscape:groupmode="layer"
     id="layer1"
     transform="translate(-1.4367878,-10.531405)">
    <g
       id="g1833">
      <circle
         style="opacity:0.997;mix-blend-mode:normal;fill:#000000;fill-opacity:1;stroke-width:1.10444"
         id="path833"
         cx="-119.70496"
         cy="319.2009"
         r="93.927078" />
      <g
         id="g1466"
         transform="translate(-216.20238,179.91667)"
         style="mix-blend-mode:normal">
        <path
           id="rect835"
           style="opacity:0.997;fill:#f3de78;fill-opacity:1;stroke-width:1.36267"
           d="m 59.103059,90.865253 40.940961,2.645833 40.94097,-2.645833 -8.99583,48.721127 2.11666,63.76459 -34.0618,5.29167 -34.061794,-5.29167 2.645833,-63.76459 z"
           sodipodi:nodetypes="ccccccccc" />
        <path
           id="rect838"
           style="opacity:0.997;fill:#fff4bf;fill-opacity:1;stroke-width:1.06499"
           d="m 59.103188,82.625603 40.940962,-2.645833 40.94097,2.645833 v 4.535711 l -40.94097,-1.5875 -40.940962,1.5875 z"
           sodipodi:nodetypes="ccccccc" />
        <path
           id="path841"
           style="opacity:0.997;mix-blend-mode:normal;fill:#dfbe1e;fill-opacity:1;stroke-width:4.02516"
           d="m 223.38281,312.28516 -15.78125,1.8125 -17.36133,2 v 27.33007 l 36,184.14454 -10,241 v 26 l 33.14063,7.14062 128.73828,24 128.73828,-24 v -17.14258 l -128.73828,20 -144.73828,-26 0.002,-9.99804 10,-241 -35.78125,-183.02344 -0.1914,-13.6211 15.97265,-1.5 154.73633,10 154.73828,-10 v -17.14257 l -154.73828,10 z"
           transform="scale(0.26458333)" />
      </g>
    </g>
    <circle
       style="fill:#ffffff;fill-opacity:1;stroke:none;stroke-width:0.963994;stroke-opacity:1"
       id="path1835"
       cx="104.05714"
       cy="113.15176"
       r="94.734932" />
    <g
       id="g1878">
      <path
         id="circle1824"
         style="opacity:0.997;fill:#000000;fill-opacity:1;stroke-width:1.20666"
         d="M 104.0574,10.531405 A 102.62053,102.62053 0 0 0 1.4367878,113.15202 102.62053,102.62053 0 0 0 104.0574,215.77211 102.62053,102.62053 0 0 0 206.67749,113.15202 102.62053,102.62053 0 0 0 104.0574,10.531405 Z m 4.38423,33.37574 40.93704,2.64584 0.004,-5.2e-4 v 5.2e-4 4.53512 5.2e-4 h -0.005 l -40.93601,2.64531 -40.935491,-2.64531 h -0.0052 v -5.2e-4 l -4.226098,0.39688 0.05064,3.60391 9.467123,48.424955 -2.645834,63.76458 -5.16e-4,2.64531 38.295346,6.87917 34.06201,-5.29167 v 4.53564 l -34.06201,6.35 -34.062013,-6.35 -8.768457,-1.88929 v -6.87916 l 2.645833,-63.76458 -9.525,-48.721575 v -7.23109 l 4.593518,-0.52916 4.175456,-0.47956 0.0041,5.2e-4 z m -40.941176,10.88513 40.941176,2.64583 40.94066,-2.64583 -8.99583,48.721575 2.11666,63.76458 -34.06149,5.29166 -34.062009,-5.29166 2.645833,-63.76458 z" />
      <path
         style="opacity:0.997;fill:#000000;fill-opacity:1;stroke-width:1.20949"
         d="m 77.225587,60.097663 7.516747,43.321747 -2.764144,61.05583 28.24356,4.93516 28.77271,-4.93516 -2.31714,-61.05583 8.12809,-43.850914 -36.49906,2.859869 z"
         id="path1841"
         sodipodi:nodetypes="ccccccccc" />
    </g>
    <path
       id="path1846"
       style="fill:#ffffff;fill-opacity:1;stroke:none;stroke-width:0.673415;stroke-opacity:1"
       d="m 111.69189,110.41238 -20.925856,7.71684 -0.493509,7.61297 21.455015,-8.246 z m -0.98754,15.22595 -20.925852,7.71684 -0.493509,7.61297 21.455021,-8.24601 z m -0.98754,15.22542 -20.925849,7.71736 -0.493508,7.61297 21.455017,-8.24652 z" />
    <path
       style="fill:#ffffff;fill-opacity:1;stroke:none;stroke-width:1.04776;stroke-opacity:1"
       d="m 133.94028,161.06186 -2.02549,-56.05492 -3.53233,0.51239 2.39984,56.0825 z"
       id="path1880"
       inkscape:transform-center-x="2.6055041"
       inkscape:transform-center-y="23.540068"
       sodipodi:nodetypes="ccccc" />
    <circle
       style="fill:#ffffff;fill-opacity:1;stroke:none;stroke-width:0.963994;stroke-opacity:1"
       id="circle1888"
       cx="104.05714"
       cy="358.08032"
       r="94.734932" />
    <g
       id="g1894"
       transform="translate(0,244.92857)">
      <path
         id="path1890"
         style="opacity:0.997;fill:#000000;fill-opacity:1;stroke-width:1.20666"
         d="M 104.0574,10.531405 A 102.62053,102.62053 0 0 0 1.4367878,113.15202 102.62053,102.62053 0 0 0 104.0574,215.77211 102.62053,102.62053 0 0 0 206.67749,113.15202 102.62053,102.62053 0 0 0 104.0574,10.531405 Z m 4.38423,33.37574 40.93704,2.64584 0.004,-5.2e-4 v 5.2e-4 4.53512 5.2e-4 h -0.005 l -40.93601,2.64531 -40.935491,-2.64531 h -0.0052 v -5.2e-4 l -4.226098,0.39688 0.05064,3.60391 9.467123,48.424955 -2.645834,63.76458 -5.16e-4,2.64531 38.295346,6.87917 34.06201,-5.29167 v 4.53564 l -34.06201,6.35 -34.062013,-6.35 -8.768457,-1.88929 v -6.87916 l 2.645833,-63.76458 -9.525,-48.721575 v -7.23109 l 4.593518,-0.52916 4.175456,-0.47956 0.0041,5.2e-4 z m -40.941176,10.88513 40.941176,2.64583 40.94066,-2.64583 -8.99583,48.721575 2.11666,63.76458 -34.06149,5.29166 -34.062009,-5.29166 2.645833,-63.76458 z" />
      <path
         style="opacity:0.997;fill:#000000;fill-opacity:1;stroke-width:1.20949"
         d="m 77.225587,60.097663 7.516747,43.321747 -2.764144,61.05583 28.24356,4.93516 28.77271,-4.93516 -2.31714,-61.05583 8.12809,-43.850914 -36.49906,2.859869 z"
         id="path1892"
         sodipodi:nodetypes="ccccccccc" />
    </g>
    <path
       id="path1896"
       style="fill:#ffffff;fill-opacity:1;stroke:none;stroke-width:0.673415;stroke-opacity:1"
       d="m 111.69189,355.34095 -20.925856,7.71684 -0.493509,7.61297 21.455015,-8.246 z m -0.98754,15.22595 -20.925852,7.71684 -0.493509,7.61297 21.455021,-8.24601 z m -0.98754,15.22542 -20.925849,7.71736 -0.493508,7.61297 21.455017,-8.24652 z" />
    <path
       style="fill:#ffffff;fill-opacity:1;stroke:none;stroke-width:1.04776;stroke-opacity:1"
       d="m 133.94028,405.99043 -2.02549,-56.05492 -3.53233,0.51239 2.39984,56.0825 z"
       id="path1898"
       inkscape:transform-center-x="2.6055041"
       inkscape:transform-center-y="23.540068"
       sodipodi:nodetypes="ccccc" />
    <path
       id="path1900"
       style="opacity:1;fill:#ffdc67;fill-opacity:1;stroke-width:1.06499"
       d="m 58.731993,47.561185 8.768974,-1.00872 40.940663,-2.64532 40.94097,2.64583 v 4.53571 l -40.94094,2.64525 -40.935491,-2.64531 -4.231298,0.39636 0.05064,3.60391 9.467123,48.424955 -2.645834,63.76458 -5.16e-4,2.64531 38.295346,6.87917 34.06201,-5.29167 v 4.53564 l -34.06201,6.35 -34.062013,-6.35 -8.768457,-1.88929 v -6.87916 l 0.133635,-2.87618 2.512198,-60.8884 -9.525,-48.721575 v -2.69538 z"
       sodipodi:nodetypes="cccccccccccccccccccccccc" />
  </g>
</svg>
