<?xml version="1.0" encoding="UTF-8" standalone="no"?>
<svg
   xmlns:dc="http://purl.org/dc/elements/1.1/"
   xmlns:cc="http://creativecommons.org/ns#"
   xmlns:rdf="http://www.w3.org/1999/02/22-rdf-syntax-ns#"
   xmlns:svg="http://www.w3.org/2000/svg"
   xmlns="http://www.w3.org/2000/svg"
   xmlns:sodipodi="http://sodipodi.sourceforge.net/DTD/sodipodi-0.dtd"
   xmlns:inkscape="http://www.inkscape.org/namespaces/inkscape"
   width="205.24071mm"
   height="205.24071mm"
   viewBox="0 0 205.24071 205.24071"
   version="1.1"
   id="svg8"
   inkscape:version="1.0.1 (3bc2e813f5, 2020-09-07)"
   sodipodi:docname="beer_logo_white.svg">
  <defs
     id="defs2" />
  <sodipodi:namedview
     id="base"
     pagecolor="#ffffff"
     bordercolor="#666666"
     borderopacity="1.0"
     inkscape:pageopacity="0.0"
     inkscape:pageshadow="2"
     inkscape:zoom="0.49497475"
     inkscape:cx="153.40267"
     inkscape:cy="392.47394"
     inkscape:document-units="mm"
     inkscape:current-layer="layer1"
     inkscape:document-rotation="0"
     showgrid="false"
     inkscape:snap-global="true"
     inkscape:snap-smooth-nodes="true"
     fit-margin-top="0"
     fit-margin-left="0"
     fit-margin-right="0"
     fit-margin-bottom="0"
     inkscape:snap-center="false" />
  <metadata
     id="metadata5">
    <rdf:RDF>
      <cc:Work
         rdf:about="">
        <dc:format>image/svg+xml</dc:format>
        <dc:type
           rdf:resource="http://purl.org/dc/dcmitype/StillImage" />
        <dc:title></dc:title>
      </cc:Work>
    </rdf:RDF>
  </metadata>
  <g
     inkscape:label="Layer 1"
     inkscape:groupmode="layer"
     id="layer1"
     transform="translate(-1.4367878,-10.531405)">
    <g
       id="g1833">
      <circle
         style="opacity:0.997;mix-blend-mode:normal;fill:#000000;fill-opacity:1;stroke-width:1.10444"
         id="path833"
         cx="-119.70496"
         cy="319.2009"
         r="93.927078" />
      <g
         id="g1466"
         transform="translate(-216.20238,179.91667)"
         style="mix-blend-mode:normal">
        <path
           id="rect835"
           style="opacity:0.997;fill:#f3de78;fill-opacity:1;stroke-width:1.36267"
           d="m 59.103059,90.865253 40.940961,2.645833 40.94097,-2.645833 -8.99583,48.721127 2.11666,63.76459 -34.0618,5.29167 -34.061794,-5.29167 2.645833,-63.76459 z"
           sodipodi:nodetypes="ccccccccc" />
        <path
           id="rect838"
           style="opacity:0.997;fill:#fff4bf;fill-opacity:1;stroke-width:1.06499"
           d="m 59.103188,82.625603 40.940962,-2.645833 40.94097,2.645833 v 4.535711 l -40.94097,-1.5875 -40.940962,1.5875 z"
           sodipodi:nodetypes="ccccccc" />
        <path
           id="path841"
           style="opacity:0.997;mix-blend-mode:normal;fill:#dfbe1e;fill-opacity:1;stroke-width:4.02516"
           d="m 223.38281,312.28516 -15.78125,1.8125 -17.36133,2 v 27.33007 l 36,184.14454 -10,241 v 26 l 33.14063,7.14062 128.73828,24 128.73828,-24 v -17.14258 l -128.73828,20 -144.73828,-26 0.002,-9.99804 10,-241 -35.78125,-183.02344 -0.1914,-13.6211 15.97265,-1.5 154.73633,10 154.73828,-10 v -17.14257 l -154.73828,10 z"
           transform="scale(0.26458333)" />
      </g>
    </g>
    <circle
       style="fill:#ffffff;fill-opacity:1;stroke:none;stroke-width:0.963994;stroke-opacity:1"
       id="path1835"
       cx="104.05714"
       cy="113.15176"
       r="94.734932" />
    <path
       id="circle1824"
       style="opacity:0.997;fill:#000000;fill-opacity:1;stroke-width:4.56061"
       d="M 387.85742 0 A 387.85712 387.85712 0 0 0 0 387.85742 A 387.85712 387.85712 0 0 0 387.85742 775.71289 A 387.85712 387.85712 0 0 0 775.71289 387.85742 A 387.85712 387.85712 0 0 0 387.85742 0 z M 404.42773 126.14453 L 559.15039 136.14453 L 559.16602 136.14258 L 559.16602 136.14453 L 559.16602 153.28516 L 559.16602 153.28711 L 559.14648 153.28711 L 404.42773 163.28516 L 249.71094 153.28711 L 249.69141 153.28711 L 249.69141 153.28516 L 233.71875 154.78516 L 233.91016 168.40625 L 269.69141 351.42969 L 259.69141 592.42969 L 259.68945 602.42773 L 404.42773 628.42773 L 533.16602 608.42773 L 533.16602 625.57031 L 404.42773 649.57031 L 275.68945 625.57031 L 242.54883 618.42969 L 242.54883 592.42969 L 252.54883 351.42969 L 216.54883 167.28516 L 216.54883 139.95508 L 233.91016 137.95508 L 249.69141 136.14258 L 249.70703 136.14453 L 404.42773 126.14453 z M 249.68945 167.28516 L 404.42773 177.28516 L 559.16406 167.28516 L 525.16406 351.42969 L 533.16406 592.42969 L 404.42773 612.42969 L 275.68945 592.42969 L 285.68945 351.42969 L 249.68945 167.28516 z M 541.86523 185.33789 L 403.91602 196.14648 L 286.44531 187.33789 L 314.85547 351.07227 L 304.4082 581.83594 L 411.15625 600.48828 L 519.90234 581.83594 L 511.14453 351.07227 L 541.86523 185.33789 z M 493.14453 357.07227 L 500.80078 568.93359 L 488.86523 570.97461 L 479.79492 359.00977 L 493.14453 357.07227 z M 416.71289 377.50195 L 416.84766 404.27539 L 335.75781 435.44141 L 337.62305 406.66797 L 416.71289 377.50195 z M 412.98047 435.04883 L 413.11523 461.82227 L 332.02539 492.98828 L 333.89062 464.21484 L 412.98047 435.04883 z M 409.24805 492.59375 L 409.38281 519.36719 L 328.29297 550.53516 L 330.1582 521.76172 L 409.24805 492.59375 z "
       transform="matrix(0.26458333,0,0,0.26458333,1.4367878,10.531405)" />
    <circle
       style="fill:#ffffff;fill-opacity:1;stroke:none;stroke-width:0.963994;stroke-opacity:1"
       id="circle1888"
       cx="104.05714"
       cy="358.08032"
       r="94.734932" />
    <g
       id="g1894"
       transform="translate(0,244.92857)">
      <path
         id="path1890"
         style="opacity:0.997;fill:#000000;fill-opacity:1;stroke-width:1.20666"
         d="M 104.0574,10.531405 A 102.62053,102.62053 0 0 0 1.4367878,113.15202 102.62053,102.62053 0 0 0 104.0574,215.77211 102.62053,102.62053 0 0 0 206.67749,113.15202 102.62053,102.62053 0 0 0 104.0574,10.531405 Z m 4.38423,33.37574 40.93704,2.64584 0.004,-5.2e-4 v 5.2e-4 4.53512 5.2e-4 h -0.005 l -40.93601,2.64531 -40.935491,-2.64531 h -0.0052 v -5.2e-4 l -4.226098,0.39688 0.05064,3.60391 9.467123,48.424955 -2.645834,63.76458 -5.16e-4,2.64531 38.295346,6.87917 34.06201,-5.29167 v 4.53564 l -34.06201,6.35 -34.062013,-6.35 -8.768457,-1.88929 v -6.87916 l 2.645833,-63.76458 -9.525,-48.721575 v -7.23109 l 4.593518,-0.52916 4.175456,-0.47956 0.0041,5.2e-4 z m -40.941176,10.88513 40.941176,2.64583 40.94066,-2.64583 -8.99583,48.721575 2.11666,63.76458 -34.06149,5.29166 -34.062009,-5.29166 2.645833,-63.76458 z" />
      <path
         style="opacity:0.997;fill:#000000;fill-opacity:1;stroke-width:1.20949"
         d="m 77.225587,60.097663 7.516747,43.321747 -2.764144,61.05583 28.24356,4.93516 28.77271,-4.93516 -2.31714,-61.05583 8.12809,-43.850914 -36.49906,2.859869 z"
         id="path1892"
         sodipodi:nodetypes="ccccccccc" />
    </g>
    <path
       id="path1896"
       style="fill:#ffffff;fill-opacity:1;stroke:none;stroke-width:0.673415;stroke-opacity:1"
       d="m 111.69189,355.34095 -20.925856,7.71684 -0.493509,7.61297 21.455015,-8.246 z m -0.98754,15.22595 -20.925852,7.71684 -0.493509,7.61297 21.455021,-8.24601 z m -0.98754,15.22542 -20.925849,7.71736 -0.493508,7.61297 21.455017,-8.24652 z" />
    <path
       style="fill:#ffffff;fill-opacity:1;stroke:none;stroke-width:1.04776;stroke-opacity:1"
       d="m 133.94028,405.99043 -2.02549,-56.05492 -3.53233,0.51239 2.39984,56.0825 z"
       id="path1898"
       inkscape:transform-center-x="2.6055041"
       inkscape:transform-center-y="23.540068"
       sodipodi:nodetypes="ccccc" />
    <path
       style="fill:#808000;fill-opacity:1;stroke:none;stroke-width:0.673415;stroke-opacity:1"
       d="m -73.301659,62.081473 -40.940651,2.645317 -8.76897,1.008724 v 4.535641 2.695444 l 9.525,48.721571 -2.51199,60.88827 -0.13384,2.87631 v 6.87917 l 8.76845,1.88929 34.062001,6.35 34.06201,-6.35 v -4.53564 l -34.06201,5.29167 -38.295331,-6.87917 5.2e-4,-2.64532 2.64583,-63.76458 -9.46712,-48.424951 -0.0506,-3.603913 4.23126,-0.396359 40.935491,2.645322 40.94117,-2.645322 v -4.535641 z"
       id="path1846" />
  </g>
</svg>
